<svg id="Camada_1" data-name="Camada 1" xmlns="http://www.w3.org/2000/svg" xmlns:xlink="http://www.w3.org/1999/xlink" viewBox="0 0 320 320"><defs><style>.cls-1{fill:#666;}.cls-2{fill:#4c4c4c;}.cls-3{fill:#303030;}.cls-4{fill:#999;}.cls-5{fill:url(#linear-gradient);}.cls-6{fill:url(#linear-gradient-2);}.cls-7{fill:#ccc;}.cls-8{fill:#fff;}</style><linearGradient id="linear-gradient" x1="696.81" y1="631.09" x2="757.68" y2="631.09" gradientTransform="translate(-594.9 790.81) rotate(-90)" gradientUnits="userSpaceOnUse"><stop offset="0" stop-color="#999"/><stop offset="0.51" stop-color="#f1f1f1"/><stop offset="1" stop-color="#999"/></linearGradient><linearGradient id="linear-gradient-2" x1="696.81" y1="634.77" x2="757.68" y2="634.77" gradientTransform="translate(-594.9 790.81) rotate(-90)" gradientUnits="userSpaceOnUse"><stop offset="0" stop-color="#4c4c4c"/><stop offset="0.51" stop-color="#959f00"/><stop offset="1" stop-color="#4c4c4c"/></linearGradient></defs><title>pisos</title><rect class="cls-1" x="159.79" y="31.77" width="62.21" height="62.34"/><path class="cls-2" d="M205.23,84.71a.87.87,0,1,1,.86-.87A.87.87,0,0,1,205.23,84.71Z"/><path class="cls-2" d="M214.77,75.86a.87.87,0,1,1,.87-.86A.86.86,0,0,1,214.77,75.86Z"/><path class="cls-2" d="M214,88.87a.87.87,0,1,1,.87-.87A.87.87,0,0,1,214,88.87Z"/><path class="cls-2" d="M202.29,90.4a1.2,1.2,0,1,1,1.2-1.2A1.21,1.21,0,0,1,202.29,90.4Z"/><path class="cls-2" d="M199.48,86.32a.81.81,0,1,1,.8-.81A.8.8,0,0,1,199.48,86.32Z"/><path class="cls-2" d="M192.77,42.39a.8.8,0,1,1,.8-.8A.8.8,0,0,1,192.77,42.39Z"/><path class="cls-2" d="M189.36,50.06a.81.81,0,1,1,.8-.81A.8.8,0,0,1,189.36,50.06Z"/><path class="cls-2" d="M206.89,40.79a.8.8,0,1,1,.81-.8A.8.8,0,0,1,206.89,40.79Z"/><path class="cls-2" d="M210.34,43a.8.8,0,1,1,.81-.8A.8.8,0,0,1,210.34,43Z"/><path class="cls-2" d="M213.17,38.54a.8.8,0,1,1,.8-.8A.8.8,0,0,1,213.17,38.54Z"/><path class="cls-2" d="M192.77,72.4a.8.8,0,1,1,.8-.8A.8.8,0,0,1,192.77,72.4Z"/><path class="cls-2" d="M187.76,60.55a.81.81,0,1,1,.8-.81A.8.8,0,0,1,187.76,60.55Z"/><path class="cls-2" d="M199.76,66.21a.8.8,0,1,1,.8-.8A.8.8,0,0,1,199.76,66.21Z"/><path class="cls-2" d="M208.64,65.64a1.24,1.24,0,1,1,1.24-1.24A1.24,1.24,0,0,1,208.64,65.64Z"/><path class="cls-2" d="M206.09,53.91a.8.8,0,1,1,.81-.8A.8.8,0,0,1,206.09,53.91Z"/><path class="cls-2" d="M214,49.25a.8.8,0,1,1,.8-.8A.8.8,0,0,1,214,49.25Z"/><path class="cls-2" d="M202.8,76.15A1.16,1.16,0,1,1,204,75,1.15,1.15,0,0,1,202.8,76.15Z"/><path class="cls-2" d="M183.38,53.11a1,1,0,1,1,1-1A1,1,0,0,1,183.38,53.11Z"/><path class="cls-2" d="M184.2,69.23a1.73,1.73,0,1,1,1.73-1.73A1.72,1.72,0,0,1,184.2,69.23Z"/><path class="cls-2" d="M169.31,38a.8.8,0,1,1,.81-.8A.8.8,0,0,1,169.31,38Z"/><path class="cls-2" d="M175.82,37.57a.8.8,0,1,1,.8-.8A.8.8,0,0,1,175.82,37.57Z"/><path class="cls-2" d="M167.71,45.33a.81.81,0,0,1,0-1.61.81.81,0,0,1,0,1.61Z"/><path class="cls-2" d="M173.41,45.67a1.21,1.21,0,1,1,1.2-1.21A1.21,1.21,0,0,1,173.41,45.67Z"/><path class="cls-2" d="M171.65,87.51a3.09,3.09,0,1,1,3.09-3.09A3.09,3.09,0,0,1,171.65,87.51Z"/><path class="cls-2" d="M184,41.59a.8.8,0,1,1,.8-.8A.8.8,0,0,1,184,41.59Z"/><path class="cls-2" d="M192.77,91.41a1.71,1.71,0,1,1,1.7-1.71A1.71,1.71,0,0,1,192.77,91.41Z"/><path class="cls-2" d="M196.1,56.26A2.25,2.25,0,1,1,198.35,54,2.24,2.24,0,0,1,196.1,56.26Z"/><path class="cls-2" d="M215,61.48a1.62,1.62,0,1,1,1.62-1.62A1.63,1.63,0,0,1,215,61.48Z"/><path class="cls-2" d="M191.07,38.87a1.7,1.7,0,1,1,1.7-1.7A1.7,1.7,0,0,1,191.07,38.87Z"/><path class="cls-2" d="M197.72,92.16a1,1,0,1,1,1-1A1,1,0,0,1,197.72,92.16Z"/><path class="cls-2" d="M183.92,81.18a.9.9,0,1,1,.9-.9A.9.9,0,0,1,183.92,81.18Z"/><path class="cls-2" d="M184,88a.84.84,0,1,1,0-1.68A.84.84,0,1,1,184,88Z"/><path class="cls-2" d="M177.71,90.22A1.27,1.27,0,1,1,179,89,1.27,1.27,0,0,1,177.71,90.22Z"/><path class="cls-2" d="M171.65,70.23A1.27,1.27,0,1,1,172.92,69,1.27,1.27,0,0,1,171.65,70.23Z"/><path class="cls-2" d="M178.54,81.93a.75.75,0,0,1-.74-.75.74.74,0,0,1,.74-.74.75.75,0,0,1,.75.74A.76.76,0,0,1,178.54,81.93Z"/><path class="cls-2" d="M206.09,48.39a.74.74,0,0,1,0-1.48.74.74,0,1,1,0,1.48Z"/><circle class="cls-2" cx="175.07" cy="67.29" r="0.74"/><path class="cls-2" d="M166.91,62.72a.75.75,0,0,1-.74-.75.74.74,0,0,1,1.48,0A.75.75,0,0,1,166.91,62.72Z"/><path class="cls-2" d="M171.12,61.23a.74.74,0,0,1-.74-.74.75.75,0,1,1,1.49,0A.74.74,0,0,1,171.12,61.23Z"/><path class="cls-2" d="M166.91,54.76a.74.74,0,0,1-.74-.74.74.74,0,1,1,1.48,0A.74.74,0,0,1,166.91,54.76Z"/><path class="cls-2" d="M177.8,63.46a.74.74,0,0,1-.74-.74.74.74,0,1,1,1.48,0A.74.74,0,0,1,177.8,63.46Z"/><rect class="cls-1" x="34.73" y="33.14" width="60.86" height="60.86"/><path class="cls-2" d="M87.92,52.39a.78.78,0,0,1-.78.79.79.79,0,1,1,0-1.57A.78.78,0,0,1,87.92,52.39Z"/><path class="cls-2" d="M79.93,43.77a.79.79,0,1,1-.78-.78A.78.78,0,0,1,79.93,43.77Z"/><path class="cls-2" d="M91.67,44.49a.78.78,0,1,1-.78-.78A.78.78,0,0,1,91.67,44.49Z"/><path class="cls-2" d="M93.06,55.05a1.09,1.09,0,0,1-2.17,0,1.09,1.09,0,1,1,2.17,0Z"/><path class="cls-2" d="M89.37,57.58a.73.73,0,0,1-.72.73.73.73,0,0,1-.73-.73.73.73,0,0,1,.73-.72A.72.72,0,0,1,89.37,57.58Z"/><path class="cls-2" d="M49.69,63.65a.72.72,0,0,1-.72.72.73.73,0,1,1,0-1.45A.72.72,0,0,1,49.69,63.65Z"/><path class="cls-2" d="M56.61,66.72a.72.72,0,1,1-1.44,0,.72.72,0,0,1,1.44,0Z"/><path class="cls-2" d="M48.24,50.88a.72.72,0,1,1-1.44,0,.72.72,0,0,1,1.44,0Z"/><path class="cls-2" d="M50.27,47.77a.72.72,0,0,1-.72.72.73.73,0,0,1-.73-.72.73.73,0,0,1,.73-.73A.73.73,0,0,1,50.27,47.77Z"/><path class="cls-2" d="M46.22,45.22a.73.73,0,0,1-.73.72.72.72,0,0,1-.72-.72.73.73,0,0,1,.72-.73A.73.73,0,0,1,46.22,45.22Z"/><path class="cls-2" d="M76.8,63.65a.72.72,0,0,1-.72.72.73.73,0,1,1,0-1.45A.72.72,0,0,1,76.8,63.65Z"/><path class="cls-2" d="M66.09,68.17a.72.72,0,0,1-.72.72.72.72,0,1,1,0-1.44A.72.72,0,0,1,66.09,68.17Z"/><path class="cls-2" d="M71.21,57.33a.73.73,0,0,1-.73.72.72.72,0,0,1-.72-.72.73.73,0,0,1,.72-.73A.73.73,0,0,1,71.21,57.33Z"/><path class="cls-2" d="M70.7,49.31a1.12,1.12,0,1,1-1.12-1.12A1.12,1.12,0,0,1,70.7,49.31Z"/><path class="cls-2" d="M60.1,51.61a.73.73,0,1,1-.73-.73A.73.73,0,0,1,60.1,51.61Z"/><path class="cls-2" d="M55.89,44.49a.73.73,0,0,1-.72.73.73.73,0,1,1,0-1.45A.72.72,0,0,1,55.89,44.49Z"/><path class="cls-2" d="M80.18,54.58a1,1,0,1,1-2.08,0,1,1,0,0,1,2.08,0Z"/><path class="cls-2" d="M59.37,72.13a.89.89,0,1,1-.88-.89A.88.88,0,0,1,59.37,72.13Z"/><path class="cls-2" d="M73.93,71.38a1.56,1.56,0,1,1-1.55-1.55A1.55,1.55,0,0,1,73.93,71.38Z"/><path class="cls-2" d="M45.7,84.83a.72.72,0,0,1-.72.72.72.72,0,1,1,0-1.44A.72.72,0,0,1,45.7,84.83Z"/><path class="cls-2" d="M45.34,79a.73.73,0,0,1-.73.72.72.72,0,0,1-.72-.72.73.73,0,0,1,.72-.73A.73.73,0,0,1,45.34,79Z"/><path class="cls-2" d="M52.34,86.28a.72.72,0,0,1-.72.72.73.73,0,0,1-.73-.72.73.73,0,0,1,.73-.73A.73.73,0,0,1,52.34,86.28Z"/><path class="cls-2" d="M52.65,81.13A1.09,1.09,0,1,1,51.57,80,1.08,1.08,0,0,1,52.65,81.13Z"/><path class="cls-2" d="M90.45,82.72a2.79,2.79,0,1,1-2.79-2.79A2.79,2.79,0,0,1,90.45,82.72Z"/><path class="cls-2" d="M49,71.56a.73.73,0,0,1-.73.73.73.73,0,0,1-.72-.73.72.72,0,0,1,.72-.72A.73.73,0,0,1,49,71.56Z"/><path class="cls-2" d="M94,63.65a1.54,1.54,0,1,1-1.54-1.54A1.54,1.54,0,0,1,94,63.65Z"/><path class="cls-2" d="M62.22,60.63a2,2,0,1,1-2-2A2,2,0,0,1,62.22,60.63Z"/><path class="cls-2" d="M66.93,43.55a1.46,1.46,0,1,1-1.46-1.46A1.46,1.46,0,0,1,66.93,43.55Z"/><path class="cls-2" d="M46.52,65.18A1.54,1.54,0,1,1,45,63.65,1.54,1.54,0,0,1,46.52,65.18Z"/><path class="cls-2" d="M94.65,59.17a.87.87,0,1,1-1.73,0,.87.87,0,0,1,1.73,0Z"/><path class="cls-2" d="M84.73,71.64a.81.81,0,0,1-1.62,0,.81.81,0,1,1,1.62,0Z"/><path class="cls-2" d="M90.89,71.56a.76.76,0,1,1-.76-.76A.76.76,0,0,1,90.89,71.56Z"/><path class="cls-2" d="M92.89,77.25a1.14,1.14,0,1,1-1.14-1.15A1.14,1.14,0,0,1,92.89,77.25Z"/><path class="cls-2" d="M74.83,82.72a1.14,1.14,0,1,1-1.14-1.14A1.14,1.14,0,0,1,74.83,82.72Z"/><path class="cls-2" d="M85.41,76.5a.68.68,0,1,1-.68-.68A.68.68,0,0,1,85.41,76.5Z"/><path class="cls-2" d="M55.11,51.61a.67.67,0,1,1-.67-.67A.67.67,0,0,1,55.11,51.61Z"/><circle class="cls-2" cx="72.18" cy="79.63" r="0.67"/><path class="cls-2" d="M68.05,87a.67.67,0,1,1-.67-.67A.67.67,0,0,1,68.05,87Z"/><path class="cls-2" d="M66.71,83.2a.67.67,0,0,1-1.34,0,.67.67,0,1,1,1.34,0Z"/><path class="cls-2" d="M60.86,87a.67.67,0,1,1-.67-.67A.67.67,0,0,1,60.86,87Z"/><path class="cls-2" d="M68.72,77.17a.67.67,0,0,1-1.34,0,.67.67,0,1,1,1.34,0Z"/><rect class="cls-3" x="38.06" y="33.14" width="4.77" height="60.86"/><rect class="cls-4" x="32.22" y="33.14" width="4.72" height="60.86"/><rect class="cls-5" x="34.32" y="33.14" width="3.74" height="60.86"/><rect class="cls-2" x="35.48" y="33.14" width="4.69" height="60.86"/><rect class="cls-6" x="39.55" y="33.14" width="0.62" height="60.86"/><path class="cls-3" d="M48.36,62.34c2.16-1.68,4.27-2.56,5.94-.42A4.94,4.94,0,0,1,46.5,68C44.84,65.84,46.21,64,48.36,62.34Z"/><path class="cls-4" d="M48.08,62.77c1.71-1.33,3.4-2,4.73-.32a3.93,3.93,0,1,1-6.21,4.83C45.27,65.57,46.36,64.11,48.08,62.77Z"/><path class="cls-7" d="M48,63.18c1.41-1.09,2.79-1.66,3.88-.26a3.22,3.22,0,1,1-5.09,4C45.71,65.48,46.61,64.28,48,63.18Z"/><path class="cls-8" d="M48.4,63.68c1.14-.88,2.25-1.35,3.14-.21a2.61,2.61,0,0,1-4.12,3.2C46.54,65.54,47.26,64.57,48.4,63.68Z"/><path class="cls-3" d="M44.48,76.52c.24-3.06,1.1-5.49,4.15-5.26a5.56,5.56,0,0,1-.85,11.09C44.73,82.12,44.25,79.58,44.48,76.52Z"/><path class="cls-4" d="M44.63,77.09c.19-2.44.88-4.37,3.32-4.19a4.43,4.43,0,1,1-.68,8.83C44.83,81.55,44.45,79.53,44.63,77.09Z"/><path class="cls-7" d="M44.93,77.46c.15-2,.72-3.59,2.71-3.44a3.64,3.64,0,0,1-.55,7.25C45.09,81.11,44.77,79.46,44.93,77.46Z"/><path class="cls-8" d="M45.64,77.51c.12-1.61.58-2.9,2.19-2.77a2.93,2.93,0,1,1-.45,5.85C45.77,80.47,45.51,79.13,45.64,77.51Z"/><path class="cls-3" d="M46.69,84.92c1.74-1.06,3.38-1.54,4.44.19A3.69,3.69,0,0,1,44.84,89C43.77,87.24,45,86,46.69,84.92Z"/><path class="cls-4" d="M46.44,85.23c1.39-.85,2.7-1.24,3.55.15a2.94,2.94,0,1,1-5,3.08C44.12,87.07,45.06,86.08,46.44,85.23Z"/><path class="cls-7" d="M46.36,85.53c1.13-.7,2.21-1,2.9.12a2.41,2.41,0,1,1-4.11,2.52C44.45,87,45.22,86.22,46.36,85.53Z"/><path class="cls-8" d="M46.6,85.93c.92-.56,1.79-.82,2.35.1a1.95,1.95,0,1,1-3.32,2C45.07,87.15,45.69,86.49,46.6,85.93Z"/><path class="cls-3" d="M44.62,57.49c-.31-2.3,0-4.23,2.24-4.54A4.2,4.2,0,0,1,48,61.27C45.68,61.58,44.93,59.78,44.62,57.49Z"/><path class="cls-4" d="M44.82,57.88c-.25-1.83,0-3.36,1.79-3.61a3.34,3.34,0,1,1,.89,6.63C45.67,61.14,45.06,59.71,44.82,57.88Z"/><path class="cls-7" d="M45.09,58.11c-.2-1.5,0-2.76,1.47-3a2.74,2.74,0,0,1,.73,5.43C45.79,60.78,45.29,59.61,45.09,58.11Z"/><path class="cls-8" d="M45.63,58c-.17-1.22,0-2.23,1.18-2.4A2.22,2.22,0,0,1,47.4,60C46.19,60.2,45.79,59.25,45.63,58Z"/><path class="cls-3" d="M53.5,48.07c.29-1.8.93-3.2,2.72-2.91a3.31,3.31,0,0,1-1,6.53C53.37,51.4,53.21,49.87,53.5,48.07Z"/><path class="cls-4" d="M53.56,48.41c.24-1.43.74-2.54,2.18-2.31a2.63,2.63,0,0,1-.84,5.2C53.46,51.07,53.33,49.85,53.56,48.41Z"/><path class="cls-7" d="M53.72,48.65c.19-1.18.6-2.09,1.78-1.9A2.16,2.16,0,1,1,54.81,51C53.63,50.82,53.53,49.82,53.72,48.65Z"/><path class="cls-8" d="M54.14,48.72c.15-1,.49-1.69,1.44-1.54A1.75,1.75,0,0,1,55,50.63C54.07,50.47,54,49.67,54.14,48.72Z"/><path class="cls-3" d="M56.11,70.89c.29-1.8.92-3.2,2.72-2.91a3.31,3.31,0,0,1-1.06,6.53C56,74.22,55.82,72.69,56.11,70.89Z"/><path class="cls-4" d="M56.17,71.23c.23-1.43.74-2.54,2.17-2.31a2.63,2.63,0,0,1-.84,5.2C56.07,73.89,55.94,72.67,56.17,71.23Z"/><path class="cls-7" d="M56.32,71.47c.19-1.18.61-2.09,1.79-1.9a2.16,2.16,0,0,1-.69,4.26C56.24,73.64,56.13,72.64,56.32,71.47Z"/><path class="cls-8" d="M56.74,71.53c.16-1,.49-1.68,1.44-1.53a1.75,1.75,0,1,1-.56,3.45C56.67,73.29,56.59,72.49,56.74,71.53Z"/><path class="cls-3" d="M60.67,57.5c.29-1.8.93-3.19,2.72-2.9a3.3,3.3,0,0,1-1.06,6.52C60.54,60.83,60.38,59.31,60.67,57.5Z"/><path class="cls-4" d="M60.73,57.85c.23-1.44.74-2.55,2.17-2.32a2.63,2.63,0,0,1-.84,5.2C60.63,60.5,60.5,59.29,60.73,57.85Z"/><path class="cls-7" d="M60.88,58.08c.2-1.18.61-2.09,1.79-1.9A2.16,2.16,0,0,1,62,60.45C60.8,60.26,60.7,59.26,60.88,58.08Z"/><path class="cls-8" d="M61.3,58.15c.16-.95.49-1.69,1.44-1.54a1.75,1.75,0,1,1-.55,3.45C61.23,59.91,61.15,59.1,61.3,58.15Z"/><path class="cls-3" d="M53.5,86.28c.16-2.15.75-3.85,2.89-3.7a3.9,3.9,0,0,1-.56,7.77C53.69,90.2,53.35,88.42,53.5,86.28Z"/><path class="cls-4" d="M53.61,86.68c.12-1.71.6-3.07,2.3-2.94a3.1,3.1,0,1,1-.44,6.18C53.76,89.8,53.48,88.38,53.61,86.68Z"/><path class="cls-7" d="M53.81,86.93c.1-1.4.5-2.51,1.9-2.41a2.54,2.54,0,0,1-.37,5.07C53.94,89.49,53.71,88.33,53.81,86.93Z"/><path class="cls-8" d="M54.31,87c.08-1.13.4-2,1.53-2a2.06,2.06,0,0,1-.3,4.1C54.41,89,54.23,88.1,54.31,87Z"/><path class="cls-3" d="M45.48,38.94c.59-1.31,1.36-2.24,2.67-1.65A2.61,2.61,0,0,1,46,42.05C44.69,41.46,44.88,40.26,45.48,38.94Z"/><path class="cls-4" d="M45.45,39.22c.47-1,1.09-1.79,2.14-1.32a2.09,2.09,0,0,1-1.72,3.8C44.82,41.22,45,40.27,45.45,39.22Z"/><path class="cls-7" d="M45.52,39.43c.39-.86.89-1.47,1.75-1.08a1.71,1.71,0,0,1-1.41,3.11C45,41.07,45.13,40.29,45.52,39.43Z"/><path class="cls-8" d="M45.82,39.57c.32-.7.73-1.19,1.42-.88a1.38,1.38,0,1,1-1.14,2.52C45.41,40.89,45.51,40.26,45.82,39.57Z"/><path class="cls-3" d="M50.67,39.33c-.6-2.37-.56-4.42,1.8-5a4.42,4.42,0,0,1,2.16,8.58C52.27,43.49,51.26,41.7,50.67,39.33Z"/><path class="cls-4" d="M50.92,39.72c-.47-1.88-.44-3.52,1.45-4a3.52,3.52,0,0,1,1.72,6.83C52.2,43,51.4,41.61,50.92,39.72Z"/><path class="cls-7" d="M51.24,39.93c-.39-1.55-.37-2.89,1.18-3.28a2.89,2.89,0,1,1,1.41,5.6C52.28,42.64,51.63,41.48,51.24,39.93Z"/><path class="cls-8" d="M51.79,39.79c-.32-1.25-.3-2.34,1-2.65a2.34,2.34,0,1,1,1.14,4.53C52.63,42,52.1,41,51.79,39.79Z"/><path class="cls-3" d="M45.64,48.16c-.29-1.85-.12-3.42,1.73-3.71a3.41,3.41,0,0,1,1.05,6.73C46.57,51.47,45.93,50,45.64,48.16Z"/><path class="cls-4" d="M45.8,48.48c-.23-1.48-.09-2.73,1.39-3A2.71,2.71,0,1,1,48,50.88C46.55,51.11,46,50,45.8,48.48Z"/><path class="cls-7" d="M46,48.66c-.19-1.21-.07-2.24,1.14-2.43a2.23,2.23,0,0,1,.69,4.4C46.64,50.82,46.22,49.87,46,48.66Z"/><path class="cls-8" d="M46.46,48.59c-.15-1-.06-1.81.92-2a1.8,1.8,0,1,1,.56,3.55C47,50.34,46.62,49.57,46.46,48.59Z"/><rect class="cls-1" x="33" y="191.79" width="32.14" height="32.21"/><path class="cls-2" d="M56.48,219.14a.45.45,0,1,1,0-.89.45.45,0,1,1,0,.89Z"/><path class="cls-2" d="M61.41,214.57a.45.45,0,1,1,.45-.45A.45.45,0,0,1,61.41,214.57Z"/><path class="cls-2" d="M61,221.29a.45.45,0,1,1,.45-.45A.45.45,0,0,1,61,221.29Z"/><path class="cls-2" d="M55,222.08a.62.62,0,1,1,.62-.62A.62.62,0,0,1,55,222.08Z"/><path class="cls-2" d="M53.51,220a.41.41,0,0,1-.42-.41.42.42,0,0,1,.42-.42.41.41,0,0,1,.41.42A.41.41,0,0,1,53.51,220Z"/><path class="cls-2" d="M50,197.28a.41.41,0,0,1-.41-.42.41.41,0,0,1,.82,0A.41.41,0,0,1,50,197.28Z"/><path class="cls-2" d="M48.28,201.24a.41.41,0,0,1-.41-.42.41.41,0,0,1,.82,0A.41.41,0,0,1,48.28,201.24Z"/><path class="cls-2" d="M57.34,196.45a.42.42,0,1,1,.41-.41A.41.41,0,0,1,57.34,196.45Z"/><path class="cls-2" d="M59.12,197.61a.42.42,0,0,1,0-.83.42.42,0,1,1,0,.83Z"/><path class="cls-2" d="M60.58,195.29a.42.42,0,1,1,.41-.41A.41.41,0,0,1,60.58,195.29Z"/><path class="cls-2" d="M50,212.78a.41.41,0,1,1,.41-.41A.41.41,0,0,1,50,212.78Z"/><path class="cls-2" d="M47.45,206.66a.41.41,0,0,1-.41-.42.41.41,0,0,1,.41-.41.41.41,0,0,1,.42.41A.42.42,0,0,1,47.45,206.66Z"/><path class="cls-2" d="M53.65,209.58a.41.41,0,0,1-.41-.41.41.41,0,0,1,.41-.42.42.42,0,0,1,.42.42A.41.41,0,0,1,53.65,209.58Z"/><path class="cls-2" d="M58.24,209.29a.64.64,0,0,1,0-1.28.64.64,0,0,1,.64.64A.64.64,0,0,1,58.24,209.29Z"/><path class="cls-2" d="M56.93,203.23a.42.42,0,1,1,.41-.41A.42.42,0,0,1,56.93,203.23Z"/><path class="cls-2" d="M61,200.82a.41.41,0,0,1-.41-.41.42.42,0,1,1,.83,0A.41.41,0,0,1,61,200.82Z"/><path class="cls-2" d="M55.22,214.72a.6.6,0,0,1-.59-.6.6.6,0,0,1,1.19,0A.6.6,0,0,1,55.22,214.72Z"/><path class="cls-2" d="M45.19,202.82a.51.51,0,1,1,.51-.51A.51.51,0,0,1,45.19,202.82Z"/><path class="cls-2" d="M45.62,211.14a.89.89,0,1,1,.89-.89A.89.89,0,0,1,45.62,211.14Z"/><path class="cls-2" d="M37.92,195a.41.41,0,1,1,0-.82.41.41,0,1,1,0,.82Z"/><path class="cls-2" d="M41.28,194.79a.41.41,0,0,1-.41-.42.41.41,0,0,1,.41-.41.41.41,0,0,1,.42.41A.42.42,0,0,1,41.28,194.79Z"/><path class="cls-2" d="M37.09,198.79a.41.41,0,0,1-.41-.41.42.42,0,1,1,.83,0A.41.41,0,0,1,37.09,198.79Z"/><path class="cls-2" d="M40,199a.62.62,0,1,1,.62-.62A.62.62,0,0,1,40,199Z"/><path class="cls-2" d="M39.13,220.59a1.6,1.6,0,1,1,1.6-1.6A1.6,1.6,0,0,1,39.13,220.59Z"/><path class="cls-2" d="M45.51,196.86a.41.41,0,1,1,0-.82.41.41,0,1,1,0,.82Z"/><path class="cls-2" d="M50,222.6a.88.88,0,1,1,.88-.88A.87.87,0,0,1,50,222.6Z"/><path class="cls-2" d="M51.76,204.44a1.16,1.16,0,1,1,1.16-1.16A1.16,1.16,0,0,1,51.76,204.44Z"/><path class="cls-2" d="M61.53,207.14a.84.84,0,0,1-.83-.84.83.83,0,0,1,.83-.83.84.84,0,0,1,.84.83A.85.85,0,0,1,61.53,207.14Z"/><path class="cls-2" d="M49.16,195.46a.88.88,0,1,1,.88-.88A.87.87,0,0,1,49.16,195.46Z"/><path class="cls-2" d="M52.6,223a.5.5,0,1,1,0-1,.5.5,0,0,1,0,1Z"/><path class="cls-2" d="M45.47,217.32a.47.47,0,1,1,.47-.47A.47.47,0,0,1,45.47,217.32Z"/><path class="cls-2" d="M45.51,220.84a.43.43,0,0,1-.43-.43.44.44,0,0,1,.43-.44.44.44,0,0,1,.44.44A.44.44,0,0,1,45.51,220.84Z"/><path class="cls-2" d="M42.26,222a.66.66,0,0,1-.65-.66.65.65,0,1,1,1.3,0A.66.66,0,0,1,42.26,222Z"/><path class="cls-2" d="M39.13,211.66a.67.67,0,0,1-.66-.66.66.66,0,0,1,.66-.65.65.65,0,0,1,.65.65A.66.66,0,0,1,39.13,211.66Z"/><path class="cls-2" d="M42.69,217.7a.38.38,0,1,1,.38-.38A.38.38,0,0,1,42.69,217.7Z"/><path class="cls-2" d="M56.93,200.38a.39.39,0,1,1,0-.77.39.39,0,0,1,0,.77Z"/><circle class="cls-2" cx="40.9" cy="210.14" r="0.38"/><path class="cls-2" d="M36.68,207.78a.39.39,0,1,1,.38-.39A.38.38,0,0,1,36.68,207.78Z"/><path class="cls-2" d="M38.86,207a.39.39,0,0,1-.39-.38.4.4,0,0,1,.39-.39.39.39,0,0,1,.38.39A.38.38,0,0,1,38.86,207Z"/><path class="cls-2" d="M36.68,203.67a.39.39,0,1,1,.38-.39A.38.38,0,0,1,36.68,203.67Z"/><path class="cls-2" d="M42.31,208.16a.39.39,0,0,1-.39-.38.4.4,0,0,1,.39-.39.39.39,0,0,1,.38.39A.38.38,0,0,1,42.31,208.16Z"/><rect class="cls-1" x="128.49" y="160.21" width="96.51" height="96.7"/><path class="cls-2" d="M199,242.33a1.35,1.35,0,1,1,1.34-1.34A1.34,1.34,0,0,1,199,242.33Z"/><path class="cls-2" d="M213.78,228.61a1.35,1.35,0,1,1,1.35-1.35A1.34,1.34,0,0,1,213.78,228.61Z"/><path class="cls-2" d="M212.54,248.78a1.35,1.35,0,1,1,1.35-1.35A1.35,1.35,0,0,1,212.54,248.78Z"/><path class="cls-2" d="M194.42,251.17a1.87,1.87,0,1,1,1.86-1.87A1.87,1.87,0,0,1,194.42,251.17Z"/><path class="cls-2" d="M190.07,244.82a1.25,1.25,0,1,1,1.24-1.24A1.24,1.24,0,0,1,190.07,244.82Z"/><path class="cls-2" d="M179.65,176.68a1.24,1.24,0,1,1,1.25-1.24A1.24,1.24,0,0,1,179.65,176.68Z"/><path class="cls-2" d="M174.37,188.57a1.25,1.25,0,1,1,1.24-1.24A1.25,1.25,0,0,1,174.37,188.57Z"/><path class="cls-2" d="M201.57,174.2a1.25,1.25,0,1,1,1.24-1.25A1.25,1.25,0,0,1,201.57,174.2Z"/><path class="cls-2" d="M206.92,177.68a1.25,1.25,0,1,1,1.24-1.24A1.24,1.24,0,0,1,206.92,177.68Z"/><path class="cls-2" d="M211.3,170.71a1.24,1.24,0,1,1,1.24-1.24A1.24,1.24,0,0,1,211.3,170.71Z"/><path class="cls-2" d="M179.65,223.24A1.25,1.25,0,1,1,180.9,222,1.25,1.25,0,0,1,179.65,223.24Z"/><path class="cls-2" d="M171.88,204.85a1.25,1.25,0,1,1,1.24-1.25A1.25,1.25,0,0,1,171.88,204.85Z"/><path class="cls-2" d="M190.5,213.63a1.24,1.24,0,1,1,1.24-1.24A1.23,1.23,0,0,1,190.5,213.63Z"/><path class="cls-2" d="M204.28,212.75a1.92,1.92,0,1,1,1.92-1.92A1.92,1.92,0,0,1,204.28,212.75Z"/><path class="cls-2" d="M200.32,194.56a1.25,1.25,0,1,1,1.25-1.25A1.25,1.25,0,0,1,200.32,194.56Z"/><path class="cls-2" d="M212.54,187.33a1.25,1.25,0,1,1,1.25-1.25A1.24,1.24,0,0,1,212.54,187.33Z"/><path class="cls-2" d="M195.22,229.05a1.79,1.79,0,1,1,1.78-1.79A1.79,1.79,0,0,1,195.22,229.05Z"/><path class="cls-2" d="M165.08,193.31a1.53,1.53,0,0,1,0-3.05,1.53,1.53,0,1,1,0,3.05Z"/><path class="cls-2" d="M166.37,218.32a2.68,2.68,0,1,1,2.67-2.68A2.68,2.68,0,0,1,166.37,218.32Z"/><path class="cls-2" d="M143.27,169.83a1.25,1.25,0,1,1,1.25-1.24A1.24,1.24,0,0,1,143.27,169.83Z"/><path class="cls-2" d="M153.35,169.21A1.25,1.25,0,1,1,154.6,168,1.25,1.25,0,0,1,153.35,169.21Z"/><path class="cls-2" d="M140.78,181.24A1.25,1.25,0,1,1,142,180,1.25,1.25,0,0,1,140.78,181.24Z"/><path class="cls-2" d="M149.62,181.77a1.87,1.87,0,1,1,1.87-1.87A1.87,1.87,0,0,1,149.62,181.77Z"/><path class="cls-2" d="M146.89,246.68a4.8,4.8,0,1,1,4.8-4.8A4.79,4.79,0,0,1,146.89,246.68Z"/><path class="cls-2" d="M166.05,175.44a1.25,1.25,0,1,1,1.25-1.24A1.25,1.25,0,0,1,166.05,175.44Z"/><path class="cls-2" d="M179.65,252.72a2.65,2.65,0,1,1,2.65-2.64A2.64,2.64,0,0,1,179.65,252.72Z"/><path class="cls-2" d="M184.82,198.2a3.48,3.48,0,1,1,3.49-3.48A3.48,3.48,0,0,1,184.82,198.2Z"/><path class="cls-2" d="M214.16,206.29a2.51,2.51,0,1,1,2.51-2.5A2.5,2.5,0,0,1,214.16,206.29Z"/><path class="cls-2" d="M177,171.23a2.65,2.65,0,1,1,2.64-2.64A2.64,2.64,0,0,1,177,171.23Z"/><path class="cls-2" d="M187.33,253.89a1.49,1.49,0,1,1,1.49-1.49A1.48,1.48,0,0,1,187.33,253.89Z"/><path class="cls-2" d="M165.93,236.86a1.4,1.4,0,1,1,1.4-1.4A1.4,1.4,0,0,1,165.93,236.86Z"/><path class="cls-2" d="M166.05,247.43a1.31,1.31,0,0,1,0-2.61,1.31,1.31,0,1,1,0,2.61Z"/><path class="cls-2" d="M156.29,250.87a2,2,0,1,1,2-2A2,2,0,0,1,156.29,250.87Z"/><path class="cls-2" d="M146.89,219.86a2,2,0,1,1,2-2A2,2,0,0,1,146.89,219.86Z"/><path class="cls-2" d="M157.58,238a1.16,1.16,0,1,1,1.16-1.16A1.16,1.16,0,0,1,157.58,238Z"/><path class="cls-2" d="M200.32,186a1.15,1.15,0,1,1,1.16-1.15A1.15,1.15,0,0,1,200.32,186Z"/><circle class="cls-2" cx="152.2" cy="215.31" r="1.15"/><path class="cls-2" d="M139.54,208.21a1.15,1.15,0,1,1,1.15-1.15A1.14,1.14,0,0,1,139.54,208.21Z"/><path class="cls-2" d="M146.08,205.91a1.16,1.16,0,1,1,1.15-1.15A1.15,1.15,0,0,1,146.08,205.91Z"/><path class="cls-2" d="M139.54,195.87a1.16,1.16,0,1,1,1.15-1.15A1.15,1.15,0,0,1,139.54,195.87Z"/><path class="cls-2" d="M156.43,209.37a1.16,1.16,0,1,1,1.16-1.16A1.16,1.16,0,0,1,156.43,209.37Z"/></svg>